<?xml version="1.0" encoding="utf-8"?>
<!-- Uploaded to: SVG Repo, www.svgrepo.com, Generator: SVG Repo Mixer Tools -->
<svg fill="#000000" version="1.1" id="Layer_1" xmlns="http://www.w3.org/2000/svg" xmlns:xlink="http://www.w3.org/1999/xlink" 
	 width="800px" height="800px" viewBox="0 0 260 260" xml:space="preserve">
<path d="M130,2C59.3,2,2,59.3,2,130s57.3,128,128,128s128-57.3,128-128S200.7,2,130,2z M45.6,88.3L108,68.7l4.2,13.4l-62.4,19.5
	L45.6,88.3z M59.9,127c0-12.2,9.8-22,22-22s22,9.8,22,22s-9.8,22-22,22S59.9,139.2,59.9,127z M173.8,209.6l-15.6-12.3l-18.8,14.8
	l-18.8-14.8l-18.8,14.8l-22-17.3l6.4-8.1l15.6,12.3l18.8-14.8l18.8,14.8l18.8-14.8l22,17.3L173.8,209.6z M178.1,149
	c-12.2,0-22-9.8-22-22s9.8-22,22-22s22,9.8,22,22S190.3,149,178.1,149z M210.2,101.6l-62.4-19.5l4.2-13.4l62.4,19.5L210.2,101.6z"/>
</svg>