<?xml version="1.0" encoding="utf-8"?>
<!-- Uploaded to: SVG Repo, www.svgrepo.com, Generator: SVG Repo Mixer Tools -->
<svg fill="#000000" version="1.1" id="Layer_1" xmlns="http://www.w3.org/2000/svg" xmlns:xlink="http://www.w3.org/1999/xlink" 
	 width="800px" height="800px" viewBox="0 0 245 256" enable-background="new 0 0 245 256" xml:space="preserve">
<path d="M189.91,63.04V6.79h-31v27.74L122.88,1.61L1.85,109.95l18.4,20.73l18.66-16.84v139.95h76.34v-38.172
	c3.045,2.008,6.43,3.175,10,3.175c3.57,0,6.955-1.167,10-3.175v38.172h70.66V114.87l18.36,16.85l18.88-20.22L189.91,63.04z
	 M141.292,210.015c4.885-6.107,7.958-14.658,7.958-23.222c0-16.016-10.745-26-24-26s-24,9.984-24,26
	c0,8.576,3.083,17.141,7.981,23.249c-19.248-6.449-32.021-23.748-32.021-45.893c0-11.91,4.06-23.31,11.4-32.18
	c0,0-2.78,12.29,2.66,22.42c1.4,2.41,4.18,4.82,7.48,3.55c2.66-1.01,3.42-4.18,2.28-7.47c-2.03-5.83-2.28-11.91-2.28-13.56
	c0-23.69,15.07-44.46,36.86-52.32c-2.53,5.2-3.8,11.02-3.8,16.98c0,15.2,9.25,25.71,16.6,32.3c13.17,11.78,19.38,21.41,19.38,36.49
	C167.79,188.528,157.04,203.946,141.292,210.015z"/>
</svg>