<?xml version="1.0" encoding="utf-8"?>
<!-- Uploaded to: SVG Repo, www.svgrepo.com, Generator: SVG Repo Mixer Tools -->
<svg width="800px" height="800px" viewBox="0 -27.3 370.647 370.647" xmlns="http://www.w3.org/2000/svg"><defs><style>.a{fill:#ffffff;}.b{fill:#211715;}.c{fill:#7abee6;}.d{fill:#957f6e;}.e{fill:#b3b3b3;}.f{fill:#7a7473;}</style></defs><path class="a" d="M267.046,116.138a36.292,36.292,0,0,1-7.912-13.438,42.516,42.516,0,0,0-2.035,12.275c-.626,5.986-1.472,14.291-7.181,16.854a5.6,5.6,0,0,0-2.738,2.369c-1.536,2.888.936,4.419,2.4,6.258a9.237,9.237,0,0,1,1.8,4.048,56.978,56.978,0,0,0,.574,8.736,24.2,24.2,0,0,0,1.522,5.941,11.487,11.487,0,0,0,5.872,6.287c4.418,2,10.589,3.056,14.694,2.268a2,2,0,0,1,2.268,1.351,53.03,53.03,0,0,1,2.767,6.682l2.2,6.464a53.052,53.052,0,0,1,15.712-7.755,147.473,147.473,0,0,1,16.271-3.428,15.805,15.805,0,0,1-.282-2.889c.017-.646.073-1.41.154-2.231l-.251-.05c-4.054-.811-10.66-3.116-13.138-5.795a25.086,25.086,0,0,1-5.108-10.627s0-.79.006-1.788a14.444,14.444,0,0,0,5.989-9.864c.421-2.448-.117-5.551-1.906-7.22A5.73,5.73,0,0,0,294,129.258a6.464,6.464,0,0,0-2.673.951,35.459,35.459,0,0,1-10.26-8.825c-3.11,0-7.929,0-7.929,0A35.724,35.724,0,0,1,267.046,116.138Z"/><path class="a" d="M89.678,187.449q-.175-.155-.342-.321c-2.157-2.135-5.031-4.973-6.662-6.675a2.825,2.825,0,0,1-.638-3.129c.488-1.959,1.456-5.774,1.817-7.334,18.787-1.115,38.188-2.277,55.947-3.36l-.009.028-1.628,6.3a2.094,2.094,0,0,0,.754,2.191c3.088,2.364,6.482,4.96,8.506,6.67,1.294,1.038,1.166,4.2-1.02,4.407-2.207.21-32.691,2.146-50.508,3.347A8.5,8.5,0,0,1,89.678,187.449Z"/><path class="b" d="M137.862,166.126c-.509,1.971-1.043,3.938-1.529,5.915a4.339,4.339,0,0,0,1.17,4.521c1.822,1.612,3.907,2.986,5.819,4.494.823.648,1.649,1.295,2.447,1.974.494.42.468.351.48.943,0,.246-.242.325,0,.268s-.3.021-.409.029c-1.7.132-3.4.239-5.095.353-14.355.96-28.713,1.866-43.068,2.828-2.272.152-4.407.274-6.325-1.195a57.068,57.068,0,0,1-5.38-5.295,10.758,10.758,0,0,1-2.032-2.094c-.3-.606.187-1.663.346-2.294.508-2.028,1.03-4.052,1.5-6.088.583-2.5-3.272-3.573-3.857-1.063-.436,1.873-.915,3.736-1.383,5.6-.522,2.082-1.231,4.227.14,6.147a41.362,41.362,0,0,0,4.715,4.878c1.7,1.694,3.331,3.591,5.568,4.587a13.8,13.8,0,0,0,6.856.805q2.88-.194,5.76-.383,6.267-.415,12.534-.823,11.338-.741,22.679-1.483c2.173-.144,4.347-.285,6.52-.443a9.363,9.363,0,0,0,2.117-.267,4.331,4.331,0,0,0,2.806-4.429c-.1-2.427-1.879-3.628-3.616-5.008-1.144-.908-2.3-1.8-3.455-2.693q-.9-.7-1.807-1.388c-.282-.217-1.218-.754-1.278-1.056a4.271,4.271,0,0,1,.213-.794l.542-2.1.875-3.385c.645-2.493-3.212-3.557-3.857-1.063Z"/><path class="a" d="M194.007,44.609c-28.136.561-132.389,2.76-168.982,3.586a4.131,4.131,0,0,0-4.043,4.134c0,18.784,0,97.469,0,117.009a4.14,4.14,0,0,0,4.4,4.129c49.036-2.916,134.734-7.951,168.985-10.288a4.127,4.127,0,0,0,3.852-4.124c0-17.782.007-91.767.008-110.311A4.131,4.131,0,0,0,194.007,44.609Z"/><path class="b" d="M194.007,42.609q-10.011.2-20.023.409-14.433.3-28.865.6-16.87.352-33.742.711-17.076.361-34.154.727-15.3.327-30.589.66-6.361.138-12.722.279l-5.372.119c-2.056.046-4.373-.19-6.248.772-3.988,2.045-3.31,6.714-3.31,10.461V68.033q0,14.56,0,29.121V129.54q0,13.92,0,27.841,0,4.851,0,9.7c0,1.968-.132,3.988,1.059,5.692a6.2,6.2,0,0,0,3.975,2.586,17.613,17.613,0,0,0,4.11-.056q17.264-1.026,34.528-2.049,19.4-1.152,38.8-2.311,19.363-1.16,38.725-2.337,16.877-1.029,33.751-2.093,6.8-.432,13.609-.878,2.909-.191,5.818-.388a8.222,8.222,0,0,0,3.893-.936,6.2,6.2,0,0,0,2.81-3.89,21.628,21.628,0,0,0,.16-4.568v-4.59q0-6,0-12.009,0-15.28,0-30.561,0-15.962,0-31.925,0-12.192,0-24.385c0-1.211.044-2.43,0-3.64a6.248,6.248,0,0,0-6.219-6.135c-2.575-.054-2.575,3.946,0,4,2.239.047,2.219,2.079,2.219,3.758v4.2q0,5.621,0,11.24,0,14.614,0,29.228,0,15.822,0,31.644,0,12.679,0,25.358v4.44c0,1.224.325,3.011-.529,3.99-.687.787-1.687.742-2.643.807l-2.78.187q-2.988.2-5.978.393-15.085.983-30.177,1.9-18.145,1.12-36.292,2.209-19.252,1.159-38.508,2.3-18.064,1.076-36.131,2.145l-16.074.955c-1.064.063-2.369.376-3.289-.322a2.551,2.551,0,0,1-.835-2.278v-3.913q0-11.758,0-23.517,0-15.47,0-30.94V79.736q0-11.611,0-23.222c0-1.253-.006-2.506,0-3.758a2.4,2.4,0,0,1,.915-2.185,4.557,4.557,0,0,1,2.564-.409q5.354-.12,10.708-.237,13.833-.3,27.664-.6,16.228-.349,32.458-.694,16.842-.359,33.683-.713,15.363-.324,30.725-.644,12.091-.252,24.183-.5l8.125-.164C196.577,46.558,196.586,42.558,194.007,42.609Z"/><path class="c" d="M138.5,150.85c-22.2,1.266-48.524,2.776-75.179,4.353,3.706-16.494,7.558-35.7,11.081-49.117a16.918,16.918,0,0,1,3.665-6.746,18.592,18.592,0,0,1,6.048-4.678c3.758-1.824,8.874-3.778,12.09-5.5,5.387,4.8,15.371,8.938,21.45,9.12A40.178,40.178,0,0,0,134.9,95.028c1.868-.8,6.291-3.927,7.295-5.591a37.7,37.7,0,0,1,13.5,5.715,14.988,14.988,0,0,1,3.986,3.708,36.586,36.586,0,0,1,3.083,5.468c2.5,7.5,7.479,33.81,7.479,41.778,0,0,0,1.111,0,2.936C161.261,149.555,150.479,150.167,138.5,150.85Z"/><path class="d" d="M98.662,85.688c-5.039-.643-10.426-3.406-12.35-6.9-2.529-4.595-2.647-10.393-1.514-15.5s3.056-10.056,3.645-15.251c.3-2.638.25-5.311.656-7.936.4-2.6,1.218-24.294,17.395-28.99,4.1-1.454,8.142-2.931,12.485-2.626a38.1,38.1,0,0,1,7.291.911c5.311,1.634,9.482,3.866,13.12,8.016a32.018,32.018,0,0,1,5.75,9.487,113.933,113.933,0,0,1,6.593,32.915,37.978,37.978,0,0,1-.569,11.008c-.841,3.592-2.638,7.461-5.557,9.768-4.353,3.441-6.35,4.234-11.927,4.43Z"/><path class="a" d="M95.294,62.629l.769.118a24.938,24.938,0,0,0,4.759,9.277,20.827,20.827,0,0,0,8.046,6.161A12.342,12.342,0,0,1,108,81.944a7.153,7.153,0,0,1-3.92,4.17c-1.14.48-6.86,2.88-7.41,3.05l-.35.108c5.411,4.755,15.293,8.835,21.328,9.015A40.178,40.178,0,0,0,134.9,95.028c1.81-.774,6.019-3.735,7.193-5.428a32.072,32.072,0,0,1-5.329-2.716,8.783,8.783,0,0,1-1.81-1.64,9.044,9.044,0,0,1-1.88-4.09,41.335,41.335,0,0,1-.53-4.974A30.4,30.4,0,0,0,139.45,68.5l2.176-3.355a37.759,37.759,0,0,0-4-22.037,30.307,30.307,0,0,0-8.739-10.782c-3.8-2.85-8.536-6.051-14.145-4.67-1.484,1.785-17.424,17.238-19.467,18.837l-1.209.945a3.669,3.669,0,0,0-2.728-.691A3.459,3.459,0,0,0,88.847,48.4a4.883,4.883,0,0,0-.511,1.97,14.668,14.668,0,0,0,1.5,7.775,9.331,9.331,0,0,0,2.413,3.162A6.179,6.179,0,0,0,95.125,62.6Z"/><path class="b" d="M128.262,80.459a17.092,17.092,0,0,0,7.578-4.439,35.114,35.114,0,0,0,5.337-6.512,2.016,2.016,0,0,0-.718-2.736,2.045,2.045,0,0,0-2.736.717q-.476.729-.981,1.437-.268.375-.547.743c-.1.13-.228.292-.054.072-.108.136-.216.273-.325.409a30.122,30.122,0,0,1-2.672,2.917c-.482.458-.984.893-1.5,1.31-.286.229.089-.056-.094.07-.122.084-.239.176-.361.262q-.432.306-.884.584a17,17,0,0,1-1.6.848c-.215.1.288-.1-.07.025-.158.055-.314.117-.474.17-.316.1-.636.191-.96.266a2.018,2.018,0,0,0-1.4,2.46,2.044,2.044,0,0,0,2.461,1.4Z"/><path class="b" d="M95.684,46.188a5.7,5.7,0,0,0-7.1-.394c-2.226,1.662-2.479,4.56-2.235,7.141.452,4.771,2.975,10.655,8.247,11.6a2.057,2.057,0,0,0,2.46-1.4,2.016,2.016,0,0,0-1.4-2.46c-3.192-.571-4.622-3.975-5.18-6.859a11.789,11.789,0,0,1-.193-2.3,4.786,4.786,0,0,1,.283-2.1,1.625,1.625,0,0,1,2.288-.391,2.056,2.056,0,0,0,2.829,0,2.016,2.016,0,0,0,0-2.828Z"/><path class="b" d="M93.342,59.759a28.853,28.853,0,0,0,6.178,13.81,20.708,20.708,0,0,0,13.541,7.648,2.012,2.012,0,0,0,2-2,2.046,2.046,0,0,0-2-2c-4.447-.477-8.19-3.38-10.937-6.745A25.291,25.291,0,0,1,97.2,58.7a2.016,2.016,0,0,0-2.46-1.4,2.046,2.046,0,0,0-1.4,2.46Z"/><path class="b" d="M113.324,26.241c-2.006,2.387-4.413,4.5-6.638,6.681-3.221,3.15-6.459,6.283-9.745,9.364-1.007.944-2,1.934-3.083,2.791a2.013,2.013,0,0,0,0,2.829,2.05,2.05,0,0,0,2.828,0c2.5-1.975,4.743-4.347,7.038-6.548,3.238-3.1,6.46-6.23,9.634-9.4.943-.942,1.936-1.866,2.8-2.887a2.055,2.055,0,0,0,0-2.829,2.018,2.018,0,0,0-2.829,0Z"/><path class="b" d="M115.27,29.584c3.979-.9,7.592.93,10.783,3.146a28.965,28.965,0,0,1,8.141,8.368,36.508,36.508,0,0,1,5.567,22.925,31.57,31.57,0,0,1-4.625,13.216c-1.349,2.2,2.109,4.212,3.454,2.018A36.474,36.474,0,0,0,143,52.212a37.129,37.129,0,0,0-14.309-22.5c-4.292-3.078-9.134-5.2-14.487-3.988-2.51.568-1.448,4.425,1.063,3.857Z"/><path class="b" d="M99.193,83.759a17.945,17.945,0,0,1-9.368-3.866c-2.493-2.2-3.439-5.649-3.658-8.875C85.622,62.953,89.7,55.5,90.493,47.569c.272-2.732.4-5.47.693-8.2.055-.514.106-1.029.165-1.544.037-.318.076-.636.115-.954.05-.4,0,.011.014-.114q.048-.345.1-.688a42.978,42.978,0,0,1,3.115-11.354c1.91-4.2,4.736-7.995,8.846-10.246a19.379,19.379,0,0,1,3.337-1.386c1.952-.64,3.866-1.381,5.856-1.9a27.356,27.356,0,0,1,10.947-.3,24.69,24.69,0,0,1,16.548,10.893A40.971,40.971,0,0,1,145,32.641a105.208,105.208,0,0,1,2.943,12.13c.73,3.995,1.243,8.023,1.578,12.07.342,4.124.7,8.412-.082,12.507a16.953,16.953,0,0,1-4.4,9.089,15.854,15.854,0,0,1-6.951,4.105,22.44,22.44,0,0,1-4.4.476c-2.565.1-2.578,4.1,0,4A19.2,19.2,0,0,0,150.7,77.534c4.37-7.684,3.326-17.1,2.33-25.509a103.46,103.46,0,0,0-6.123-26.065,30.179,30.179,0,0,0-15.94-16.971,27.518,27.518,0,0,0-5.315-1.8,44.075,44.075,0,0,0-5.673-.635,31.285,31.285,0,0,0-12.706,2.165,28.66,28.66,0,0,0-8.206,3.9,24.5,24.5,0,0,0-5.582,6,37.918,37.918,0,0,0-5.239,13.4c-.376,1.83-.648,3.68-.866,5.535-.066.561-.124,1.123-.184,1.685-.02.192-.049.385-.062.578-.027.372.047-.321.036-.264-.11.562-.163,1.147-.226,1.717-.249,2.252-.241,4.525-.5,6.775a45.211,45.211,0,0,1-1.364,6.458c-1.134,4.2-2.521,8.358-2.877,12.724a22.811,22.811,0,0,0,2.1,12.028c1.648,3.3,4.893,5.44,8.208,6.823a22.594,22.594,0,0,0,5.624,1.549,2.069,2.069,0,0,0,2.46-1.4,2.014,2.014,0,0,0-1.4-2.461Z"/><path class="b" d="M115.288,67.876a10.431,10.431,0,0,0,5.024,1.172,8.3,8.3,0,0,0,5.181-1.579,1.8,1.8,0,0,0,.527-1.273,1.832,1.832,0,0,0-.527-1.273,1.857,1.857,0,0,0-2.546,0c.625-.487.007-.029-.19.074-.151.08-.549.207.029,0-.135.047-.267.1-.4.147-.369.119-.762.148-1.13.259.185-.056.32-.038.044-.011-.111.011-.222.02-.333.028-.267.017-.535.024-.8.023-.24,0-.48-.01-.72-.026-.11-.007-.22-.016-.329-.027l-.188-.02.18.024c-.07-.071-.435-.077-.541-.1q-.26-.057-.515-.133-.222-.066-.438-.147c-.048-.018-.094-.038-.142-.055-.288-.1.431.2.175.072-.179-.09-.36-.174-.537-.267a1.8,1.8,0,1,0-1.817,3.108Z"/><path class="b" d="M119.13,56.376a22.236,22.236,0,0,1,.524,2.393l-.064-.479a1.458,1.458,0,0,1,.009.33l.064-.478a.789.789,0,0,1-.036.149l.182-.43a.678.678,0,0,1-.053.1l.282-.364a.516.516,0,0,1-.078.077l.364-.282a1.5,1.5,0,0,1-.19.1l.43-.182a1.36,1.36,0,0,1-.319.094l.478-.064a1.246,1.246,0,0,1-.3,0l.478.065c-.273-.038-.541-.086-.816-.123a2,2,0,0,0-1.272.527,1.8,1.8,0,0,0,0,2.546l.364.281a1.791,1.791,0,0,0,.908.246l.029,0-.479-.065a6.362,6.362,0,0,0,.93.129A3.079,3.079,0,0,0,122,60.573a2.172,2.172,0,0,0,1.127-1.435,3.466,3.466,0,0,0-.023-1.448c-.134-.764-.308-1.521-.5-2.271a1.8,1.8,0,0,0-2.214-1.257,1.821,1.821,0,0,0-1.076.827,1.888,1.888,0,0,0-.181,1.387Z"/><path class="b" d="M106.9,49.392c-.419,1.363-.143,4.5,2.44,4.765,3.414-.023,3.593-3.815,2.443-5.6C110.839,47.1,108.071,46.5,106.9,49.392Z"/><path class="b" d="M133.192,49.374c.42,1.364.149,4.5-2.434,4.769-3.414-.018-3.6-3.81-2.451-5.594C129.247,47.088,132.014,46.48,133.192,49.374Z"/><path class="b" d="M95.193,87.44c-4.5,2.368-9.56,3.776-13.868,6.48a20.7,20.7,0,0,0-9.053,12.4c-2.827,10.936-4.906,22.054-7.244,33.1a49.771,49.771,0,0,0-1.543,8.775c-.067,2.363.135,5.267,1.608,7.228a2.063,2.063,0,0,0,2.736.718,2.015,2.015,0,0,0,.718-2.737c-1.077-1.433-1.111-3.488-1.062-5.209a40.98,40.98,0,0,1,1.3-7.234c1.157-5.455,2.267-10.92,3.415-16.377,1.047-4.971,2.122-9.938,3.341-14.871a23.7,23.7,0,0,1,2.33-6.717,16.96,16.96,0,0,1,4.634-5.06,39.153,39.153,0,0,1,7.3-3.654c2.491-1.079,5.008-2.12,7.412-3.386,2.278-1.2.259-4.654-2.019-3.454Z"/><path class="b" d="M87.443,153.905c1.071-11.817,1.775-23.665,2.27-35.52.108-2.574-3.893-2.569-4,0-.495,11.855-1.2,23.7-2.27,35.52a2.015,2.015,0,0,0,2,2,2.043,2.043,0,0,0,2-2Z"/><path class="b" d="M152.852,150.677a158.207,158.207,0,0,0,3.261-36.862c-.1-2.565-4.1-2.578-4,0a153.485,153.485,0,0,1-3.118,35.8c-.5,2.515,3.36,3.591,3.857,1.064Z"/><path class="b" d="M141.664,91.366a38.854,38.854,0,0,1,8.716,2.987c2.625,1.317,5.493,2.9,7.355,5.231a22.054,22.054,0,0,1,4.161,8.98,263.106,263.106,0,0,1,5.157,26.161,78.411,78.411,0,0,1,1.19,11.381c.01,2.573,4.01,2.579,4,0a79.156,79.156,0,0,0-1.117-10.986c-.691-4.766-1.524-9.513-2.44-14.24-.847-4.37-1.751-8.736-2.849-13.05a40.43,40.43,0,0,0-1.2-4.188,26.564,26.564,0,0,0-3.134-5.656c-2.08-2.99-5.215-5.038-8.39-6.719a42.672,42.672,0,0,0-10.386-3.758c-2.5-.582-3.574,3.274-1.063,3.857Z"/><path class="b" d="M140.468,88.428c-1.02,1.573-3.706,3.312-5.573,4.362a30.59,30.59,0,0,1-9.783,3.037,29.414,29.414,0,0,1-9.726.224,37.248,37.248,0,0,1-8.762-2.779,35.874,35.874,0,0,1-9.008-5.519c-1.927-1.693-4.767,1.125-2.828,2.828a42.014,42.014,0,0,0,18.739,9.175,33.4,33.4,0,0,0,11.345.124,37.2,37.2,0,0,0,11.505-3.347,26.02,26.02,0,0,0,4.1-2.7,14.319,14.319,0,0,0,3.442-3.381c1.4-2.167-2.057-4.174-3.454-2.019Z"/><path class="b" d="M110.336,21.887a15.556,15.556,0,0,1,1.305,2.738l-.2-.478c.466,1.108.922,2.228,1.276,3.378a2,2,0,1,0,3.857-1.064,41.062,41.062,0,0,0-1.493-3.892,15.357,15.357,0,0,0-1.29-2.7,2.135,2.135,0,0,0-1.2-.919,2,2,0,0,0-2.258,2.938Z"/><path class="b" d="M142.205,87.506c.274.113-.008,0-.131-.059-.155-.068-.309-.138-.463-.208q-.438-.2-.87-.416c-.616-.3-1.225-.624-1.821-.964a7.788,7.788,0,0,1-2.677-2.2,8.047,8.047,0,0,1-.535-.886c-.086-.163-.17-.328-.243-.5.08.186-.02-.062-.039-.116a12.771,12.771,0,0,1-.487-1.864,16.576,16.576,0,0,1-.219-1.8c-.068-.813-.12-1.628-.186-2.442a2,2,0,0,0-4,0c.273,3.375.325,6.958,2.394,9.816,1.984,2.741,5.166,4.229,8.214,5.493a2,2,0,0,0,2.46-1.4,2.062,2.062,0,0,0-1.4-2.46Z"/><path class="b" d="M97.205,91.093c1.765-.569,3.476-1.4,5.185-2.118.9-.376,1.808-.743,2.7-1.134a8.9,8.9,0,0,0,3.953-3.5,13.877,13.877,0,0,0,1.818-6.085,2.009,2.009,0,0,0-2-2,2.052,2.052,0,0,0-2,2c-.012.149-.026.3-.043.446q.041-.251-.018.121c-.049.286-.105.57-.173.853-.144.6-.36,1.159-.555,1.739-.081.2-.069.173.038-.086-.039.088-.08.176-.122.264q-.13.27-.28.531-.115.2-.244.395-.087.133-.18.261.228-.284.014-.02a7.333,7.333,0,0,1-.978.96c.32-.248-.294.178-.357.215a2.484,2.484,0,0,1-.7.37c.381-.062.277-.114.135-.053-.087.038-.175.074-.263.111l-.7.293q-1.874.786-3.752,1.563c-.839.346-1.677.74-2.542,1.019a2,2,0,0,0,1.063,3.857Z"/><path class="b" d="M182.211,146.356q-22.815,1.317-45.631,2.6-31.11,1.774-62.216,3.592-18.783,1.1-37.565,2.236c-2.557.154-2.575,4.155,0,4q33.032-2,66.067-3.9,28.252-1.63,56.508-3.231,11.42-.649,22.837-1.305c2.559-.148,2.576-4.149,0-4Z"/><path class="e" d="M352.315,288.947c2.021-15.139,1.425-59,.187-68.338a83.558,83.558,0,0,0-3.59-16.907c-4.31-12.219-13.772-22.033-24.968-25.5-3.348-5.894-5.4-7.485-8.189-7.4-2.9.09-12.083,1.842-18.767,3.679-6.089,1.675-13.429,5.8-16.046,8.024-1.408,1.195-2.815,4.887-3.6,6.752l-1.073,2.557c-.916.431-1.845.877-2.794,1.341-8.575,4.187-13.978,9.172-17.992,18.01-4.687,10.321-8.756,28.83-12.083,43.416a187.677,187.677,0,0,1-5.966,21.273S249.32,292.662,286.986,294,352.315,288.947,352.315,288.947Z"/><path class="b" d="M2,235.132c12.064-1.072,24.136-2.054,36.208-3.032q24.243-1.963,48.493-3.859,26.178-2.06,52.359-4.094,23.325-1.816,46.652-3.641,16.252-1.275,32.5-2.592l2.522-.211c2.547-.214,2.57-4.216,0-4-10.041.846-20.088,1.629-30.134,2.419q-22.692,1.785-45.386,3.546-26.091,2.032-52.18,4.075-24.7,1.938-49.4,3.919c-12.741,1.026-25.483,2.059-38.217,3.169q-1.709.149-3.416.3a2.052,2.052,0,0,0-2,2,2.016,2.016,0,0,0,2,2Z"/><path class="f" d="M284.211,78.394c-13.354,3.905-20.046,12.723-21.248,14.745a34.1,34.1,0,0,0-4.021,8.963,36.3,36.3,0,0,0,14.2,19.28s4.819,0,7.929,0a35.459,35.459,0,0,0,10.26,8.825,6.464,6.464,0,0,1,2.673-.951,5.73,5.73,0,0,1,4.723,1.328c1.789,1.669,2.327,4.772,1.906,7.22a14.444,14.444,0,0,1-5.989,9.864c-.006,1-.006,1.788-.006,1.788a25.086,25.086,0,0,0,5.108,10.627c2.478,2.679,9.084,4.984,13.138,5.795l2.788.539c2.046-4.268,7.44-8.1,10.652-11.118,5.79-5.438,14.431-16.243,15.171-32.113a46.617,46.617,0,0,0-5.972-24.316c-9.567-16.611-21.487-20.239-28.89-21.726a47,47,0,0,0-21.421.97Q284.7,78.25,284.211,78.394Z"/><path class="b" d="M291.461,132.577c1.8-1.525,4.941-2.179,6.43.126,1.364,2.11.917,4.87.189,7.113-1.528,4.706-5.513,7.4-10.109,8.687-2.475.692-1.424,4.553,1.064,3.858,4.957-1.386,9.56-4.23,11.885-8.98a16.144,16.144,0,0,0,1.826-7.807c-.173-2.93-1.377-6.092-4.138-7.5-3.422-1.741-7.181-.7-9.975,1.672a2.015,2.015,0,0,0,0,2.828,2.042,2.042,0,0,0,2.828,0Z"/><path class="b" d="M259.813,123.164c-.809,1.677-1.152,5.785,1.96,6.65,4.194.66,5.237-4.2,4.212-6.738C265.146,121,261.882,119.66,259.813,123.164Z"/><path class="b" d="M281,175.238c-.557-1.684-1.212-3.331-1.933-4.951q-.339-.761-.7-1.51c-.073-.152-.14-.31-.222-.457-.216-.389.268.657-.039-.069a4.024,4.024,0,0,0-3.906-2.533c-1.493.064-2.913.326-4.428.248a26.478,26.478,0,0,1-9.419-2.225,10.234,10.234,0,0,1-5.38-6.2,37.3,37.3,0,0,1-1.588-11.032,12.391,12.391,0,0,0-.85-4.95,13.732,13.732,0,0,0-2.7-3.811c-.692-.754-1.458-1.493-.934-2.546.627-1.26,2.118-1.584,3.2-2.31a13.273,13.273,0,0,0,4.8-6.467c2.566-6.581,1.723-13.833,3.392-20.6.616-2.5-3.24-3.566-3.857-1.064-1.535,6.229-.992,12.755-2.819,18.923-.66,2.227-1.722,4.656-3.787,5.918-1.315.8-2.664,1.331-3.677,2.562a5.767,5.767,0,0,0-1.345,4.87c.664,2.9,3.722,4.309,4.444,7.212a28.691,28.691,0,0,1,.243,4.776,54.87,54.87,0,0,0,.707,5.911,18.227,18.227,0,0,0,4.382,9.589c2.159,2.261,5.139,3.435,8.094,4.264a28.97,28.97,0,0,0,11.234.982c.673-.079.375-.3.671.359.165.366.35.724.521,1.087a45.02,45.02,0,0,1,2.03,5.084c.805,2.432,4.669,1.39,3.857-1.063Z"/><path class="b" d="M259.94,107.345a31.315,31.315,0,0,1,5.6-14.435c.219-.3-.192.237.055-.073.1-.129.207-.259.312-.388q.415-.507.853-1c.654-.732,1.341-1.434,2.053-2.108a37.186,37.186,0,0,1,6.015-4.611,44.692,44.692,0,0,1,37.4-4.033c11.182,3.861,19.986,13.757,24.2,24.673a43.354,43.354,0,0,1,2.594,22.541,44.765,44.765,0,0,1-6.983,17.584,53.415,53.415,0,0,1-9.883,10.82,42.639,42.639,0,0,0-6.965,7.041,11.8,11.8,0,0,0-2.269,7.972,43.677,43.677,0,0,0,.481,4.579,2.014,2.014,0,0,0,2.46,1.4,2.049,2.049,0,0,0,1.4-2.46,33.1,33.1,0,0,1-.375-4.513c-.006-.289,0-.577,0-.866,0-.12.007-.241.015-.361.027-.4-.082.391.007-.1a6.753,6.753,0,0,1,.659-1.9c1.51-2.9,4.158-5.134,6.594-7.245a62.331,62.331,0,0,0,10.894-11.691,47.289,47.289,0,0,0,5.884-42.067c-4.221-12.388-13.438-23.54-25.7-28.527-12.486-5.08-27.409-4.074-39.367,1.99-9.077,4.6-16.292,12.242-18.908,22.229a45.355,45.355,0,0,0-1.014,5.55,2.01,2.01,0,0,0,2,2,2.052,2.052,0,0,0,2-2Z"/><path class="b" d="M258.122,145.256a19.978,19.978,0,0,1-3.253.761l.532-.072a12.124,12.124,0,0,1-3.057.041l.532.072c-.248-.034-.5-.075-.74-.126a2,2,0,0,0-1.063,3.858,16.148,16.148,0,0,0,8.112-.677,2,2,0,1,0-1.063-3.857Z"/><path class="b" d="M267.777,291.631a31.883,31.883,0,0,0,5.464-9.575,77.875,77.875,0,0,0,2.424-10.029A202.494,202.494,0,0,0,279,251.916a2.014,2.014,0,0,0-2-2,2.044,2.044,0,0,0-2,2c-.632,6.263-1.861,12.485-3.114,18.648a93.886,93.886,0,0,1-2.208,9.53,26.628,26.628,0,0,1-4.733,8.709,2.06,2.06,0,0,0,0,2.828,2.014,2.014,0,0,0,2.829,0Z"/><path class="b" d="M318.8,178.762c-9.372.964-18.764,2.29-27.79,5.073a110.792,110.792,0,0,0-11.491,4.32,86.674,86.674,0,0,0-12.035,6.034,35.715,35.715,0,0,0-9.421,8.612,45.811,45.811,0,0,0-6.01,11.47c-3.495,9.179-5.739,18.846-7.968,28.393-2.568,11-4.966,21.94-8.574,32.655-.824,2.445,3.038,3.494,3.857,1.064a289.087,289.087,0,0,0,7.489-27.96c2.211-9.66,4.426-19.369,7.534-28.788,2.555-7.743,5.986-15.2,12.629-20.277a59.539,59.539,0,0,1,11.381-6.341,113.978,113.978,0,0,1,10.9-4.423c9.535-3.263,19.5-4.8,29.5-5.832a2.056,2.056,0,0,0,2-2,2.013,2.013,0,0,0-2-2Z"/><path class="b" d="M324.767,175.651c-1.931-3.122-4.348-6.56-8.336-6.838a19.535,19.535,0,0,0-4.07.36c-1.895.272-3.78.619-5.659.991a89.743,89.743,0,0,0-12.808,3.2,56.611,56.611,0,0,0-11.538,5.663,12.977,12.977,0,0,0-4.1,3.627,36.271,36.271,0,0,0-2.839,6.066,2.012,2.012,0,0,0,1.4,2.46,2.052,2.052,0,0,0,2.46-1.4,41.181,41.181,0,0,1,2.011-4.407,6.922,6.922,0,0,1,2.584-2.563,51.884,51.884,0,0,1,9.971-5.174,73.858,73.858,0,0,1,11.259-3.07,85.843,85.843,0,0,1,9.648-1.7,8.793,8.793,0,0,1,1.685-.057,3.712,3.712,0,0,1,1.217.445c1.616.978,2.7,2.85,3.665,4.412,1.351,2.185,4.813.179,3.454-2.019Z"/><path class="b" d="M261.844,214.69a21.934,21.934,0,0,1,6.232,2.31,16.817,16.817,0,0,1,4.567,3.85,19.671,19.671,0,0,1,4.581,9.931,2.018,2.018,0,0,0,2.46,1.4,2.043,2.043,0,0,0,1.4-2.46,23.853,23.853,0,0,0-5.609-11.7,22.647,22.647,0,0,0-12.565-7.189,2.049,2.049,0,0,0-2.46,1.4,2.02,2.02,0,0,0,1.4,2.46Z"/><path class="b" d="M326.87,181.437a39.455,39.455,0,0,1,19,19.961c3.272,7.347,4.521,15.743,5.037,23.732.917,14.18.9,28.479.611,42.68a192.05,192.05,0,0,1-1.2,21.137,2.01,2.01,0,0,0,2,2,2.052,2.052,0,0,0,2-2,178.9,178.9,0,0,0,1.146-18.857c.2-8.029.218-16.064.115-24.095-.085-6.667-.224-13.343-.62-20-.48-8.06-1.633-16.382-4.527-23.944-3.929-10.267-11.471-19.377-21.541-24.068a2.057,2.057,0,0,0-2.736.718,2.016,2.016,0,0,0,.718,2.736Z"/><path class="b" d="M256.975,102.51a38.759,38.759,0,0,0,15.153,20.6,2,2,0,1,0,2.019-3.454,34.377,34.377,0,0,1-13.315-18.208c-.749-2.455-4.611-1.409-3.857,1.063Z"/><path class="b" d="M271.841,111.728c4.619,7.173,9.471,14.481,16.767,19.2,2.168,1.4,4.176-2.06,2.019-3.454-6.689-4.325-11.1-11.2-15.332-17.763-1.389-2.157-4.853-.154-3.454,2.019Z"/><path class="b" d="M292.705,149.99a26.232,26.232,0,0,0,2.539,6.94,16.362,16.362,0,0,0,4.129,5.5,24.819,24.819,0,0,0,6.447,3.429,40.117,40.117,0,0,0,6.529,1.944,2.05,2.05,0,0,0,2.46-1.4,2.02,2.02,0,0,0-1.4-2.461c-3.9-.795-8.225-2.1-11.441-4.527.195.148-.263-.22-.256-.214-.147-.129-.291-.263-.429-.4a9.47,9.47,0,0,1-.74-.859,20.389,20.389,0,0,1-1.848-3.037,22.373,22.373,0,0,1-2.136-5.985,2.02,2.02,0,0,0-2.46-1.4,2.043,2.043,0,0,0-1.4,2.461Z"/><path class="f" d="M329.9,144.2c5.329.643,10.047,2.438,13.15,6.261,3.78,4.658,3.95,11.1,1.754,16.364-3.346,8.02-9.267,19.363-3.92,26.045-4.091,3.58-12.831-.072-15.747-1.729-3.709-2.107-5.952-5.365-8.111-8.908-2.375-3.9-4.125-11.272-4.051-14.072a65.378,65.378,0,0,1,.9-7.69"/><path class="b" d="M329.9,146.2c3.637.46,7.462,1.579,10.234,4.089a12.8,12.8,0,0,1,4.084,10.033c-.111,3.833-1.9,7.219-3.362,10.676a52.409,52.409,0,0,0-3.722,11.168c-.71,4.014-.565,8.358,2.023,11.714l.313-2.424c-1.962,1.625-5.28.908-7.487.309a21.946,21.946,0,0,1-7.362-3.34,23.974,23.974,0,0,1-6.388-8.128,33.179,33.179,0,0,1-2.942-9.161c-.635-3.376-.041-6.781.513-10.134a2.062,2.062,0,0,0-1.4-2.46,2.016,2.016,0,0,0-2.461,1.4c-.6,3.664-1.264,7.381-.711,11.085a37.8,37.8,0,0,0,3.258,10.719,27.682,27.682,0,0,0,7.433,9.622,25.408,25.408,0,0,0,8.836,4.214c3.863,1.074,8.268,1.412,11.536-1.3a1.994,1.994,0,0,0,.313-2.423c-2.231-2.892-2.137-6.475-1.364-9.891a66.221,66.221,0,0,1,4.173-11.537c1.652-3.821,3.077-7.578,2.763-11.828a16.532,16.532,0,0,0-5.356-11.264c-3.617-3.2-8.226-4.546-12.927-5.141a2.01,2.01,0,0,0-2,2,2.049,2.049,0,0,0,2,2Z"/><path class="a" d="M297.653,314.115c.611-12.889,2.017-25.733,2.866-37.867.347-4.952,3.307-9.319,8.076-10.695,14.162-4.086,34.787-10.1,49.034-14.246,5.558-1.616,11.515,2.6,11.069,8.37-1.378,17.874-1.563,24.754-2.462,37.859"/><path class="b" d="M299.653,314.115c.6-12.49,1.91-24.932,2.833-37.4.323-4.359,2.655-8.064,6.971-9.329,4.64-1.359,9.289-2.687,13.931-4.035q15.146-4.4,30.284-8.811c2.052-.6,4.3-1.594,6.462-1.58a6.965,6.965,0,0,1,5.047,2.226c1.466,1.6,1.6,3.408,1.442,5.472q-.318,4.161-.607,8.325c-.659,9.513-1.129,19.039-1.78,28.553-.176,2.569,3.824,2.558,4,0,.607-8.871,1.05-17.751,1.648-26.622q.289-4.3.613-8.591c.206-2.743.4-5.243-.9-7.766a10.947,10.947,0,0,0-12.163-5.269c-4.991,1.214-9.915,2.877-14.847,4.313q-8.144,2.371-16.289,4.74-7.761,2.255-15.526,4.5c-2.4.695-4.78,1.3-6.81,2.839a13.52,13.52,0,0,0-4.319,5.676c-1.2,2.9-1.194,6.036-1.435,9.117-.287,3.675-.6,7.347-.919,11.02-.644,7.532-1.269,15.068-1.633,22.62-.124,2.573,3.876,2.567,4,0Z"/><path class="a" d="M151.5,126.271c-1.278-3.8-4.249-13.76-7.679-24.8a1,1,0,0,0-1.208-.674c-8.3,2.2-26.534,6.94-35.354,9.566a1,1,0,0,0-.672,1.241c2.4,8.119,10.422,36.341,12.758,44.284a.991.991,0,0,0,1.18.69c5.791-1.362,20.219-5.223,24.351-6.413"/><path class="b" d="M153.427,125.74c-1.65-4.92-3.1-9.91-4.62-14.872q-.739-2.413-1.482-4.828a37.117,37.117,0,0,0-1.78-5.585c-1.384-2.768-4.692-1.263-6.931-.673-10.156,2.676-20.335,5.288-30.42,8.219-1.177.341-2.466.593-3.175,1.7-.724,1.134-.4,2.305-.052,3.485q.677,2.3,1.341,4.609,1.9,6.583,3.787,13.173c2.363,8.244,4.7,16.5,7.108,24.726.388,1.329.989,2.51,2.482,2.831,1.143.245,2.478-.287,3.594-.563,2.666-.661,5.325-1.351,7.982-2.048,4.723-1.239,9.451-2.477,14.145-3.825,2.469-.709,1.419-4.57-1.064-3.857-3.728,1.07-7.481,2.061-11.23,3.056q-3.5.928-7,1.832-1.428.366-2.858.727-.762.191-1.523.378c-.326.08-1.1.11-1.337.325l-.2.048,1.043.617a3.538,3.538,0,0,0-.127-.433,4.638,4.638,0,0,0-.232-.794l-.624-2.15q-.726-2.513-1.448-5.027-1.836-6.382-3.662-12.768-1.865-6.505-3.733-13.012-.766-2.661-1.537-5.323a25.575,25.575,0,0,0-1.183-4.06c-.049-.1-.05-.367-.13-.441.674.615-1.281,1.229-.051.868q.638-.187,1.274-.371,1.557-.45,3.117-.886,3.578-1,7.166-1.97,7.563-2.047,15.143-4.034,3.4-.9,6.8-1.791a2.476,2.476,0,0,0,.7-.185c.375-.055.3-.126-.221-.216q-.748-.463-.3.315a11.022,11.022,0,0,0,.864,2.793q.89,2.886,1.774,5.774c1.562,5.1,3.053,10.236,4.75,15.3.814,2.428,4.679,1.387,3.857-1.063Z"/><path class="a" d="M155.284,157.844a7.846,7.846,0,0,1-3.38-.715,7.37,7.37,0,0,1-2.275-1.533,7.753,7.753,0,0,1-1.968-4.043,9.5,9.5,0,0,1-.366-3.612c-1.54-.687-2.549-1.264-3.249-1.572a6.27,6.27,0,0,1-2.654-1.9,3.8,3.8,0,0,1-.7-2.457,7.507,7.507,0,0,1,.629-2.345,12.6,12.6,0,0,1-1.733-1.449c-.861-1.806.165-4.89.976-6.172a2.822,2.822,0,0,1,2.171-1.458,4.619,4.619,0,0,1,2.094.224,53.563,53.563,0,0,1,8.943,4.033c-.673-1.919-1.77-5-2.338-6.929a5.1,5.1,0,0,1-.162-1.646,1.073,1.073,0,0,1,1.126-.862,6.068,6.068,0,0,1,2.157.3c1.607.814,3.432,3.054,4.639,5.031a19.964,19.964,0,0,1,2.958,7.763,33.762,33.762,0,0,1,.028,7c-.457,2.6-.5,4.16-1.19,6.95a8.485,8.485,0,0,1-1.54,3.506,5.531,5.531,0,0,1-3.552,1.842C155.691,157.824,155.488,157.838,155.284,157.844Z"/><path class="b" d="M154.326,132.873a60.606,60.606,0,0,0-7.755-3.56c-2.4-.884-5.323-1.279-7.158.934a10.124,10.124,0,0,0-2.144,6.665,4.369,4.369,0,0,0,1.2,3.044,19.384,19.384,0,0,0,1.839,1.439l-.718-2.736c-1.208,2.567-1.316,5.62.836,7.741a10.475,10.475,0,0,0,2.98,1.868c1.028.494,2.036,1.025,3.079,1.489a2.063,2.063,0,0,0,2.736-.718,2.014,2.014,0,0,0-.717-2.736,44.539,44.539,0,0,1-4.56-2.222,2.311,2.311,0,0,1-1.238-1.47,1.785,1.785,0,0,1,.046-.915c.048-.217.1-.433.168-.645.019-.063.26-.661.124-.373a2.077,2.077,0,0,0-.717-2.737c-.134-.1-.267-.2-.4-.3-.056-.042-.355-.281-.085-.065-.12-.095-.239-.19-.356-.289a2.849,2.849,0,0,0-.3-.263c-.346-.217.248.224.166.254a3.172,3.172,0,0,1-.1-.852,7.338,7.338,0,0,1,.491-2.271,4.936,4.936,0,0,1,.762-1.394c.2-.2-.018-.052.293-.137a1.432,1.432,0,0,1,.728-.077,13.363,13.363,0,0,1,3,1.011,54.307,54.307,0,0,1,5.775,2.765c2.266,1.222,4.288-2.231,2.019-3.454Z"/><path class="b" d="M155.245,133.036c-.618-1.768-1.263-3.535-1.791-5.333a7.649,7.649,0,0,0-.2-.872c-.019-.044.032-.313-.006-.333l-.426.456q-.813.543-.212.448c.476.228.992.033,1.476.352a12.672,12.672,0,0,1,3.378,3.992,19.691,19.691,0,0,1,2.334,5.213c.906,3.379.568,6.94.093,10.35-.4,2.853-.519,7.953-4.159,8.5-4.475.679-6.708-3.912-6.454-7.681.173-2.569-3.827-2.559-4,0-.348,5.159,2.539,10.381,7.826,11.488a8.133,8.133,0,0,0,7.507-1.974c1.829-1.87,2.4-4.638,2.819-7.127.807-4.736,1.482-9.685.276-14.422a23.419,23.419,0,0,0-3.212-7.037c-1.3-1.962-3.1-4.448-5.41-5.283-2.242-.81-5.582-.437-5.815,2.494a9.248,9.248,0,0,0,.66,3.545c.464,1.436.962,2.86,1.46,4.284.844,2.414,4.71,1.375,3.857-1.064Z"/><path class="a" d="M94.518,155.672c-2.692,1.824-5.686,3.441-8.978,3.555a10.925,10.925,0,0,1-10.818-8.712c-.809-4.835,2.1-8.921,7.266-10.808,2.862-.624,7.751-1.824,10.158-1.943,2.095-.1,4.5.175,5.507,1.913a3.88,3.88,0,0,1-.488,4.317,6.081,6.081,0,0,1-4.211,2.027,13.345,13.345,0,0,1,3.586,2.619,4.131,4.131,0,0,1,1.009,4.007,6.229,6.229,0,0,1-2.522,2.676C94.859,155.44,94.689,155.557,94.518,155.672Z"/><path class="b" d="M93.509,153.946c-3.316,2.224-7.248,4.271-11.274,2.718A8.691,8.691,0,0,1,76.6,149.3c-.13-3.3,2.007-5.77,4.831-7.189a21.025,21.025,0,0,1,4.972-1.34,44.778,44.778,0,0,1,5.157-.959c1.181-.117,3.726-.381,4.4.937.93,1.808-1.6,3.126-3.006,3.274-1.857.2-2.869,2.66-1.01,3.727,1.328.762,3.1,1.62,3.664,3.163.533,1.468-1.072,2.334-2.1,3.035-2.115,1.441-.116,4.909,2.019,3.453,2.416-1.648,4.659-3.629,4.1-6.855-.528-3.039-3.181-4.825-5.664-6.25l-1.009,3.727c2.742-.289,5.429-1.52,6.6-4.168a5.518,5.518,0,0,0-2.134-7.1c-2.114-1.211-4.73-1.117-7.059-.793-2.416.337-4.8.9-7.174,1.433-4.608,1.039-8.979,3.98-10.246,8.783-1.306,4.954,1.13,9.926,5.181,12.791a12.34,12.34,0,0,0,8.2,2.206,20.3,20.3,0,0,0,9.2-3.772C97.655,155.972,95.654,152.506,93.509,153.946Z"/><path class="e" d="M57.762,82.513c0-2.719-1.73-5.21-4.662-5.193a6.463,6.463,0,0,0,2.614-4.893,4.843,4.843,0,0,0-5.3-4.65,5.267,5.267,0,0,0-5.3,5.02,5.933,5.933,0,0,0,2.614,4.711c-1.988.025-4.409,2.79-4.409,5.509Z"/><path class="b" d="M63.382,61.485c-8.559.191-17.128.315-25.681.7a2.036,2.036,0,0,0-2,2q.009,9.587.008,19.172a2.025,2.025,0,0,0,2,2c8.556-.2,17.113-.528,25.666-.842a2.034,2.034,0,0,0,2-2c0-6.343-.029-12.687.007-19.029.014-2.575-3.986-2.578-4,0-.036,6.342-.006,12.686-.007,19.029l2-2c-8.553.314-17.11.642-25.666.842l2,2q0-9.586-.008-19.172l-2,2c8.553-.384,17.122-.508,25.681-.7C65.952,65.427,65.961,61.427,63.382,61.485Z"/><path class="b" d="M158.073,7.033l3.039-3.617A2.139,2.139,0,0,0,161.7,2a2.037,2.037,0,0,0-.586-1.415A2.009,2.009,0,0,0,159.7,0a1.964,1.964,0,0,0-1.414.585L155.244,4.2a2.144,2.144,0,0,0-.586,1.414,2.037,2.037,0,0,0,.586,1.415,2.015,2.015,0,0,0,1.414.585,1.967,1.967,0,0,0,1.415-.585Z"/><path class="b" d="M164.682,23.1l5.2-.115A2.085,2.085,0,0,0,171.3,22.4a2,2,0,0,0-1.414-3.414l-5.2.115a2.081,2.081,0,0,0-1.414.585,2,2,0,0,0,1.414,3.415Z"/><path class="b" d="M162.663,14.446c2.033-1.206,4.133-2.3,6.206-3.432A2,2,0,0,0,166.85,7.56c-2.073,1.136-4.173,2.226-6.206,3.433a2,2,0,1,0,2.019,3.453Z"/></svg>