<?xml version="1.0" encoding="utf-8"?>
<!-- Uploaded to: SVG Repo, www.svgrepo.com, Generator: SVG Repo Mixer Tools -->
<svg fill="#000000" version="1.1" id="Layer_1" xmlns="http://www.w3.org/2000/svg" xmlns:xlink="http://www.w3.org/1999/xlink" 
	 width="800px" height="800px" viewBox="0 0 300 300" enable-background="new 0 0 300 300" xml:space="preserve">
<path d="M160.068,37.671c0-14.636,11.864-26.5,26.5-26.5s26.5,11.864,26.5,26.5s-11.864,26.5-26.5,26.5
	S160.068,52.307,160.068,37.671z M63,98H45v194h18v-69h69v69h18v-87H63V98z M255.704,115.35c-1.463-6.463-7.88-10.519-14.354-9.054
	l-44.823,10.148c0.107,0.166-35.537-54.893-35.537-54.893C156,54.5,150.627,49.258,141.73,49.258
	c-13.938,0-21.605,12.743-26.426,22.367C114.658,72.912,76.92,150,76.92,150c-4.991,11.771-3.604,24.233,2.33,33.375
	C83.875,190.5,92.875,195,102.328,195H174v83c0,7.732,6.268,14,14,14s14-6.268,14-14v-97c0-7.732-6.268-14-14-14h-51.747
	l21.481-66.356l23.188,35.87c2.661,3.985,6.86,6.331,12.728,5.189L238,131.662V292h10V129.306
	C253.663,127.31,257.062,121.35,255.704,115.35z"/>
</svg>